<svg xmlns="http://www.w3.org/2000/svg" width="30" height="30" fill="none" viewBox="0 0 30 30"><path fill="#F2F8FF" fill-rule="evenodd" d="M14.994 30.0001V24.2408C21.1566 24.2408 25.9216 18.1913 23.569 11.7659C22.6975 9.386 20.7832 7.48783 18.3836 6.62393C11.9057 4.29283 5.808 9.01721 5.80707 15.1281C5.80707 15.1281 5.80645 15.1296 5.80562 15.1296H0C0 5.39217 9.48486 -2.18955 19.7729 0.995725C24.2687 2.38783 27.8411 5.93103 29.2447 10.3899C32.4561 20.5934 24.8121 30.0001 14.994 30.0001Z" clip-rule="evenodd"/><path fill="#F2F8FF" fill-rule="evenodd" d="M15.0072 24.2556H9.21753V18.5153L9.21866 18.5142H15.0065L15.0074 18.5148L15.0072 24.2556ZM9.21649 28.6677H4.76946L4.76822 28.6665V24.2556H9.21753L9.21742 28.6665L9.21649 28.6677ZM4.77153 24.2556H1.04356L1.04087 24.2544V20.5588L1.04356 20.5562H4.76873L4.77153 20.5574V24.2556Z" clip-rule="evenodd"/></svg>