<svg xmlns="http://www.w3.org/2000/svg" width="650" height="250" viewBox="0 0 650 130" aria-labelledby="87qhsz3360uj6xpqxk4hl975pio2u7p l1bc0610ek2gqye5ebsbttyeav9mn9q" class="hero--logo-image"><g fill="#FFF" fill-rule="evenodd"><path d="M241.322-10.832h10.537v63.217l7.023 7.023 7.025-7.023 10.535-10.537-3.512-3.512-7.023 7.024v-56.193l14.047-14.047h-14.047v-10.535zM495.25-35.416v14.048l-10.535 10.536h10.536v63.217l7.024 7.023 7.024-7.023v-63.217l14.048-14.047h-14.048v-24.586z"/><path d="M519.835-60l-10.536 10.536 10.536 10.535 10.535-10.535zM331.43-42.44l7.024 7.024V45.36l14.048 14.049 10.537-10.537-10.537-10.536V-42.44l-10.536-10.536z"/><path d="M352.503-14.344l10.535 10.536v52.68l14.048-14.048v-45.656L363.038-24.88zM44.282-47.605l7.38 7.38v18.36L33.301-3.508v-44.098l-11.07-11.07-.046.045-.045-.046L0-36.535l3.781 3.782 11.07-11.07 3.691 3.69v92.16l7.38 7.382 7.38-7.382V12.396l18.36-18.36V44.649l14.76 14.76 7.38-7.38 3.69-3.69 7.38-7.38-3.689-3.69-7.38 7.38-7.382-7.38v-84.873l-11.07-11.07zM611.067-10.832h10.536v63.217l7.024 7.023 7.024-7.023 10.536-10.537-3.512-3.512-7.024 7.024v-56.193l14.048-14.047h-14.048v-10.535zM285.794-.296V45.36l14.048 14.049 10.536-10.537-10.536-10.536v-52.68z"/><path d="M299.842-14.344L310.38-3.808v52.68l14.048-14.048v-45.656L310.379-24.88zM403.978-14.344L389.93-.296V45.36l14.048 14.048 7.025-7.023 3.511-3.513 10.537-10.536-3.513-3.512-10.535 10.536-7.025-7.024V13.578l24.498-24.497-13.962-13.96-10.536 10.535zm0 0l10.45 10.45-10.45 10.448v-20.898zM93.791-.296V45.36l14.048 14.049 10.536-10.537-10.536-10.536v-52.68zM107.84-14.344l10.535 10.536v52.68l10.536 10.536 10.536-10.536-7.024-7.024v-52.68L118.375-24.88zM148.887-.296V45.36l14.047 14.049 7.024-7.024 3.512-3.513 10.536-10.536-3.512-3.512-10.536 10.536-7.024-7.024v-52.68zM162.934-14.443L173.47-3.907l10.535-10.536L173.47-24.98zM220.27-24.88l-10.536 10.537L220.27-3.81l10.537-10.534zM209.734 6.728l7.024 7.025v38.631l7.024 7.024 7.025-7.024V6.728L220.27-3.808zM188.662-42.44l7.024 7.024v87.8l7.024 7.025 7.024-7.024V-42.44l-10.536-10.536zM542.03-14.344L527.984-.296V45.36l14.048 14.048 7.024-7.023 3.512-3.513 10.536-10.536-3.512-3.512-10.536 10.536-7.024-7.024V13.578l24.497-24.497-13.96-13.96-10.537 10.535zm0 0l10.45 10.45-10.45 10.448v-20.898zM456.639-14.344l10.535 10.536 10.537-10.536-10.537-10.536zM435.566-14.344l7.024 7.023v59.706l7.025 7.023 7.024-7.023v-66.729l-10.537-10.535zM575.947 48.872l10.536 10.537 10.535-10.537-10.535-10.536zM607.555-14.344L597.018-24.88l-10.535 10.536 10.535 10.536zM575.947-3.808V10.24l21.071 21.072v17.56l10.537-10.536v-17.56l-1.756-1.755-8.78-8.781L586.482-.296v-14.048z"/><g><path d="M149.887 129.704v45.656l14.047 14.049 7.024-7.024 3.512-3.513 10.536-10.536-3.512-3.512-10.536 10.536-7.024-7.024v-52.68zM163.934 115.557l10.536 10.536 10.535-10.536-10.535-10.536zM260.978 115.656l-14.048 14.048v45.656l14.048 14.048 7.025-7.023 3.511-3.513 10.537-10.536-3.513-3.512-10.535 10.536-7.025-7.024v-24.758l24.498-24.497-13.962-13.96-10.536 10.535zm0 0l10.45 10.45-10.45 10.448v-20.898zM293.887 129.704v45.656l14.047 14.049 7.024-7.024 3.512-3.513 10.536-10.536-3.512-3.512-10.536 10.536-7.024-7.024v-52.68zM307.934 115.557l10.536 10.536 10.535-10.536-10.535-10.536zM333.662 87.56l7.024 7.024v87.8l7.024 7.025 7.024-7.024V87.56l-10.536-10.536zM365.27 105.12l-10.536 10.537 10.536 10.534 10.537-10.534zM354.734 136.728l7.024 7.025v38.631l7.024 7.024 7.025-7.024v-45.656l-10.536-10.536zM210.734 136.728l7.024 7.025v38.631l7.024 7.024 7.025-7.024v-45.656l-10.536-10.536zM189.662 87.56l7.024 7.024v87.8l7.024 7.025 7.024-7.024V87.56l-10.536-10.536zM403.03 115.656l-14.047 14.048v45.656l14.048 14.048 7.024-7.023 3.512-3.513 10.536-10.536-3.512-3.512-10.536 10.536-7.024-7.024v-24.758l24.497-24.497-13.96-13.96-10.537 10.535zm0 0l10.45 10.45-10.45 10.448v-20.898zM457.639 115.656l10.535 10.536 10.537-10.536-10.537-10.536zM436.566 115.656l7.024 7.023v59.706l7.025 7.023 7.024-7.023v-66.729l-10.537-10.535z"/></g></g></svg>